<svg xmlns="http://www.w3.org/2000/svg" viewBox="131.98154223632812 164.06100054931642 311.0369309671253 247.07799938964843"> <svg xmlns="http://www.w3.org/2000/svg" xmlns:xlink="http://www.w3.org/1999/xlink" version="1.1" id="2222_1" x="201.98154223632812" y="234.06100054931642" viewBox="122.58000946044922 301.1700439453125 554.8400268554688 197.67996215820312" xml:space="preserve" height="60.937522888183594" width="171.03693096712527" preserveAspectRatio="xMinYMin" enable-background="new 0 0 800 800" style="overflow: visible;"><path class="st0" d="M570.7,489.85h-34.46h-14c-2.49,0-4.5,2.01-4.5,4.5s2.01,4.5,4.5,4.5h14h34.46c2.49,0,4.5-2.01,4.5-4.5    S573.19,489.85,570.7,489.85z" style="fill: #29A9E0;"></path><path class="st0" d="M487.6,489.85H229.3c-2.49,0-4.5,2.01-4.5,4.5s2.01,4.5,4.5,4.5H487.6c2.49,0,4.5-2.01,4.5-4.5    S490.09,489.85,487.6,489.85z" style="fill: #29A9E0;"></path><path class="st0" d="M333.8,475.93h33.68c2.49,0,4.5-2.01,4.5-4.5s-2.01-4.5-4.5-4.5H333.8c-2.49,0-4.5,2.01-4.5,4.5    S331.31,475.93,333.8,475.93z" style="fill: #29A9E0;"></path><path class="st0" d="M598.98,466.93H397.97c-2.49,0-4.5,2.01-4.5,4.5s2.01,4.5,4.5,4.5h201.01c2.49,0,4.5-2.01,4.5-4.5    S601.46,466.93,598.98,466.93z" style="fill: #29A9E0;"></path><path class="st0" d="M305.25,471.43c0-2.49-2.01-4.5-4.5-4.5h-99.73c-2.49,0-4.5,2.01-4.5,4.5s2.01,4.5,4.5,4.5h99.73    C303.23,475.93,305.25,473.92,305.25,471.43z" style="fill: #29A9E0;"></path><path class="st1" d="M172.34,438.06c0.01-0.01,0.03-0.03,0.04-0.04c5.38-11.74,16.91-33.58,36.91-56.05    c4.31-4.84,9.02-9.71,14.13-14.49c8.82-8.26,18.86-16.29,30.24-23.58c4.5-2.89,9.21-5.65,14.13-8.28    c9.3-4.95,18.93-10.13,29.8-13.82c4.57-1.55,9.27-2.98,14.13-4.26c1.55-0.41,3.28-0.84,5.01-1.25c2.71-0.64,5.66-1.07,8.26-2.06    c21.72-8.28,35.93-9.28,35.89-10.61c-0.08-2.61-13.47-0.91-18.08-0.39c-10.63,1.21-21.1,2.63-30.64,5.02    c-4.84,1.21-9.56,2.54-14.13,4.02c-10.82,3.49-20.88,7.68-30.24,12.38c-4.9,2.46-9.61,5.07-14.13,7.78    c-11.22,6.75-21.27,14.21-30.24,21.98c-5.05,4.38-9.76,8.85-14.13,13.34c-18.43,18.94-30.99,38.28-38.9,52.7v-56.95    c0-2.68-2.17-4.85-4.85-4.85h0c-2.68,0-4.85,2.17-4.85,4.85v76.96h-33.26c-2.68,0-4.85,2.17-4.85,4.85v0    c0,2.68,2.17,4.85,4.85,4.85h33.26v19.99c0,2.68,2.17,4.85,4.85,4.85h0c2.68,0,4.85-2.17,4.85-4.85v-18.95h0    C170.14,442.85,170.6,441.34,172.34,438.06z" style="fill: #000000; fill-opacity: 1;"></path><path class="st1" d="M639.32,440.48v-76.84c0-2.68-2.17-4.85-4.85-4.85l0,0c-2.68,0-4.85,2.17-4.85,4.85v57.12    c-10.74-19.47-24.18-37.25-39.87-52.77c-0.07-0.08-0.14-0.15-0.21-0.23c-4.38-4.5-9.08-8.97-14.13-13.34    c-8.96-7.77-19.02-15.22-30.24-21.97c-4.52-2.72-9.23-5.32-14.13-7.78c-9.36-4.7-19.41-8.9-30.24-12.38    c-4.57-1.47-9.29-2.81-14.13-4.02c-7.66-1.92-15.75-3.38-24.11-4.55c-0.16-0.02-0.32-0.05-0.49-0.07    c-1.89-0.26-3.71-0.61-5.64-0.83c-1.98-0.23-4.06-0.34-6.08-0.52c-0.67-0.07-1.35-0.11-2.02-0.17c-2.02-0.16-3.98-0.39-6.03-0.51    c-0.57-0.03-1.18-0.02-1.75-0.05c-4.31-0.24-8.65-0.4-13.02-0.4c-1.17,0-2.33,0.09-3.5,0.11c-4.04,0.05-8.07,0.12-11.97,0.34    c-4.82,0.27-9.53,0.68-14.13,1.2c-10.63,1.21-20.69,3.07-30.24,5.45c-4.84,1.21-9.56,2.54-14.13,4.02    c-4.7,1.51-9.18,3.22-13.6,4.98c-2.34,0.94-4.59,1.94-6.85,2.94c-3.3,1.46-6.64,2.89-9.79,4.46c-4.9,2.46-9.61,5.07-14.13,7.78    c-6.02,3.62-11.68,7.46-17.04,11.43c-1.92,1.42-3.81,2.86-5.65,4.32c-2.59,2.05-5.11,4.12-7.54,6.23    c-5.05,4.38-9.76,8.85-14.13,13.34c-29.97,30.81-44.48,62.7-48.57,72.72h-35.5c-2.7,2.27-1.63,9.71-1.63,9.71h88.16h6.7h44.49    h6.51h45.06h7.51h42.79h7.51h45.06h6.51h44.49h6.7h98.98v20.12c0,2.68,2.17,4.85,4.85,4.85l0,0c2.68,0,4.85-2.17,4.85-4.85v-20.12    h0.01L639.32,440.48L639.32,440.48z M226.78,440.48c3.05-6.92,8.9-18.83,18.17-32.74l17.23,32.74H226.78z M268.27,431.48    l-17.14-32.56c4.05-5.51,8.58-11.21,13.68-16.94c4.31-4.84,9.02-9.71,14.13-14.49c1.33-1.25,2.74-2.47,4.13-3.71L268.27,431.48z     M276.11,440.48l15.2-69.49l23.84,69.49H276.11z M319.1,422.49l-23.64-68.93c4.36-3.32,8.89-6.57,13.72-9.66    c4.5-2.89,9.21-5.65,14.13-8.28c2.63-1.4,5.46-2.65,8.22-3.97L319.1,422.49z M326.31,440.48l12.73-93.05l28.08,93.05H326.31z     M372.5,425.12l-29.69-98.42c3.53-1.43,7.03-2.89,10.75-4.15c4.57-1.55,9.27-2.98,14.13-4.26c8.13-2.14,16.77-3.76,25.74-5.01    L372.5,425.12z M379.37,440.48l19.58-104.65l19.58,104.65H379.37z M430.79,440.48l28.07-93.05l12.73,93.05H430.79z M478.8,422.49    l-12.5-92.59c3.86,1.46,8.17,3.77,11.13,5.34c4.92,2.62,9.29,5.44,13.35,8.38c4.39,3.18,8.2,5.89,11.84,9.4L478.8,422.49z     M482.76,440.48l23.84-69.49l15.2,69.49H482.76z M529.64,431.48l-15.03-68.72c1.78,1.56,3.56,3.13,5.26,4.72    c5.11,4.79,9.82,9.65,14.13,14.49c4.89,5.49,9.23,10.94,13.15,16.23L529.64,431.48z M535.73,440.48l17.63-33.5    c9.57,14.23,15.57,26.45,18.68,33.5H535.73z M582.57,440.48c-4.09-10.01-18.59-41.91-48.57-72.72c-4.38-4.5-9.08-8.97-14.13-13.34    c-2.8-2.43-5.7-4.81-8.65-7.16c-1.72-1.37-3.45-2.74-5.22-4.06c-5.12-3.83-10.44-7.42-15.96-10.59    c-11.75-6.73-24.74-11.42-38.14-13.42c-1.37-0.2-2.74-0.38-4.11-0.52c-0.92-0.1-10.45-0.6-10.33,1.19    c0.02,0.32,1.36,0.6,1.58,0.67c1.07,0.33,2.15,0.62,3.23,0.92c4.4,1.21,8.73,2.8,12.97,4.49l-29.82,99.18l-21.16-113.09    c2.59-0.24,5.14-0.54,7.8-0.7c4.93-0.29,9.96-0.45,15.12-0.45c5.16,0,10.19,0.16,15.12,0.45c4.48,0.27,8.85,0.68,13.14,1.17    c0.8,0.1,1.59,0.2,2.39,0.3c0.48,0.06,0.94,0.15,1.42,0.22c1.59,0.21,3.14,0.47,4.69,0.72c1.44,0.23,2.91,0.42,4.34,0.67    c3.92,0.69,7.81,1.47,11.66,2.36c0.85,0.2,1.72,0.37,2.57,0.58c2.86,0.69,5.7,1.45,8.51,2.25c1.3,0.37,2.58,0.77,3.86,1.16    c2.37,0.72,4.74,1.44,7.08,2.23c10.42,3.61,20.13,7.86,29.09,12.63c4.92,2.62,9.63,5.39,14.13,8.28    c11.37,7.29,21.41,15.32,30.24,23.58c5.11,4.79,9.82,9.65,14.13,14.49c21.41,24.05,33.21,47.54,38.04,58.51H582.57z" style="fill: #000000; fill-opacity: 1;"></path><path class="st1" d="M672.57,440.48h-24.52v9.71h24.52c2.68,0,4.85-2.17,4.85-4.85v0C677.43,442.65,675.25,440.48,672.57,440.48z" style="fill: #000000; fill-opacity: 1;"></path></svg> <svg y="312.4990005493164" viewBox="2.880000114440918 11.680000305175781 79.20000457763672 28.639999389648438" x="247.89954025268554" height="28.639999389648438" width="79.20000457763672" style="overflow: visible;"><g fill="#000000" fill-opacity="1" style=""><path d="M16.40 40Q16.08 40 15.96 39.68L15.96 39.68L11.32 27.76Q11.28 27.64 11.16 27.64L11.16 27.64L6.88 27.64Q6.72 27.64 6.72 27.80L6.72 27.80L6.72 39.60Q6.72 40 6.32 40L6.32 40L3.28 40Q2.88 40 2.88 39.60L2.88 39.60L2.88 12.40Q2.88 12 3.28 12L3.28 12L12.24 12Q15.60 12 17.64 14.20Q19.68 16.40 19.68 19.96L19.68 19.96Q19.68 22.64 18.44 24.56Q17.20 26.48 15.04 27.20L15.04 27.20Q14.92 27.24 14.96 27.40L14.96 27.40L19.84 39.52L19.88 39.68Q19.88 40 19.52 40L19.52 40L16.40 40ZM6.88 15.32Q6.72 15.32 6.72 15.48L6.72 15.48L6.72 24.44Q6.72 24.60 6.88 24.60L6.88 24.60L11.72 24.60Q13.56 24.60 14.70 23.34Q15.84 22.08 15.84 20L15.84 20Q15.84 17.88 14.72 16.60Q13.60 15.32 11.72 15.32L11.72 15.32L6.88 15.32ZM32.44 40.32Q29.92 40.32 27.98 39.30Q26.04 38.28 24.98 36.42Q23.92 34.56 23.92 32.12L23.92 32.12L23.92 19.84Q23.92 16.12 26.26 13.90Q28.60 11.68 32.44 11.68L32.44 11.68Q36.28 11.68 38.60 13.88Q40.92 16.08 40.92 19.72L40.92 19.72L40.92 20.04Q40.92 20.24 40.80 20.36Q40.68 20.48 40.52 20.48L40.52 20.48L37.48 20.64Q37.08 20.64 37.08 20.24L37.08 20.24L37.08 19.64Q37.08 17.56 35.80 16.28Q34.52 15 32.44 15L32.44 15Q30.36 15 29.06 16.28Q27.76 17.56 27.76 19.64L27.76 19.64L27.76 32.36Q27.76 34.44 29.06 35.72Q30.36 37 32.44 37L32.44 37Q34.52 37 35.80 35.72Q37.08 34.44 37.08 32.36L37.08 32.36L37.08 31.80Q37.08 31.40 37.48 31.40L37.48 31.40L40.52 31.56Q40.92 31.56 40.92 31.96L40.92 31.96L40.92 32.24Q40.92 34.64 39.86 36.48Q38.80 38.32 36.88 39.32Q34.96 40.32 32.44 40.32L32.44 40.32ZM46.60 40Q46.20 40 46.20 39.60L46.20 39.60L46.20 12.40Q46.20 12 46.60 12L46.60 12L49.64 12Q50.04 12 50.04 12.40L50.04 12.40L50.04 36.52Q50.04 36.68 50.20 36.68L50.20 36.68L61.56 36.68Q61.96 36.68 61.96 37.08L61.96 37.08L61.96 39.60Q61.96 40 61.56 40L61.56 40L46.60 40ZM82.08 14.92Q82.08 15.32 81.68 15.32L81.68 15.32L70.12 15.32Q69.96 15.32 69.96 15.48L69.96 15.48L69.96 24.12Q69.96 24.28 70.12 24.28L70.12 24.28L77.72 24.28Q78.12 24.28 78.12 24.68L78.12 24.68L78.12 27.20Q78.12 27.60 77.72 27.60L77.72 27.60L70.12 27.60Q69.96 27.60 69.96 27.76L69.96 27.76L69.96 39.60Q69.96 40 69.56 40L69.56 40L66.52 40Q66.12 40 66.12 39.60L66.12 39.60L66.12 12.40Q66.12 12 66.52 12L66.52 12L81.68 12Q82.08 12 82.08 12.40L82.08 12.40L82.08 14.92Z" transform="translate(0, 0)"></path></g></svg></svg>